<svg id="Calque_1" data-name="Calque 1" xmlns="http://www.w3.org/2000/svg" viewBox="0 0 425.2 425.2"><defs><style>.cls-1{fill:#1d1d1b;}.cls-2{fill:#fff;}.cls-3{fill:#ffec00;}</style></defs><title>pages-jaunes-seeklogo</title><rect class="cls-1" x="65.69" y="97.31" width="359.51" height="327.88" rx="31.59"/><path class="cls-2" d="M382.57,450.45c-1.27,0-1.88.84-1.88,2.09v2.27c-6-5.77-13.35-6.24-18.44-1.29a11.79,11.79,0,0,0-.52,16.18c4.92,5.38,11.92,5.08,19-.9,0,1.12,0,2.15,0,3.18-.18,4.13-2.37,6.82-6.42,7.69A15.18,15.18,0,0,1,363,477.6c-1.18-.71-2.16-.75-2.84.42s.13,1.92,1.15,2.51A20.25,20.25,0,0,0,374.63,483c5.82-.84,9.66-4.76,9.83-10.27.2-6.75.07-13.52.07-20.28A1.79,1.79,0,0,0,382.57,450.45Zm-11,19.81a8.43,8.43,0,0,1-8.79-8.42,8.29,8.29,0,0,1,8.73-8.42c5.17.05,9.29,3.75,9.34,8.39S376.74,470.18,371.59,470.26Z" transform="translate(-208.07 -84.9)"/><path class="cls-2" d="M317.27,447.58c-4.74-.6-9.52-.18-14.29-.25-1.33,0-1.94.85-1.94,2.19,0,4,0,8,0,12v12a1.88,1.88,0,0,0,1.85,2.13c1.16.11,2-.78,2-2.1a25.63,25.63,0,0,0,0-3.16c-.1-1.11.27-1.41,1.39-1.41a67.35,67.35,0,0,0,9.84-.22c4.23-.63,7.89-2.23,9.78-6.33C329.05,455.73,324.86,448.55,317.27,447.58Zm-1.2,17.7c-3.42.5-6.87.14-10.31.23-.76,0-.84-.39-.83-1,0-2.11,0-4.22,0-6.33s0-4.11,0-6.17c0-.5-.17-1.15.68-1.12,3.75.09,7.54-.41,11.25.33,4,.79,6.13,3.43,6.05,7S320.16,464.69,316.07,465.28Z" transform="translate(-208.07 -84.9)"/><path class="cls-2" d="M585.47,453.06c-3.67-3.18-8-3.61-12.34-1.88-4.56,1.82-7,5.5-7.48,10.33-.64,5.93,1.88,10.87,6.63,13.25a13.92,13.92,0,0,0,15.27-2.06c.83-.74,1.26-1.56.54-2.46s-1.73-.79-2.66-.06a14.73,14.73,0,0,1-1.94,1.37c-5.65,3.25-12.34.52-13.85-5.6-.27-1.06-.06-1.37,1.07-1.34,2.71.08,5.41,0,8.12,0s5.63,0,8.44,0c1.29,0,2.32-.45,2.3-2A12.27,12.27,0,0,0,585.47,453.06Zm-.81,8.75H570.5c-.51,0-1.15.16-1-.74.6-3.19,2.13-5.79,5.22-7.05a7.42,7.42,0,0,1,8.26,1.48,9.78,9.78,0,0,1,2.67,5.45C585.87,461.92,585.25,461.81,584.66,461.81Z" transform="translate(-208.07 -84.9)"/><path class="cls-2" d="M495.2,450.75a20.41,20.41,0,0,0-11.07,1.08c-1.08.4-2.17.94-1.59,2.38s1.64,1.17,2.8.71a15.88,15.88,0,0,1,7.93-1c3.82.48,6,3.38,5.45,7.29a27.15,27.15,0,0,0-11.31-.62c-4.51.83-7.2,3.71-7.19,7.71s2.66,6.7,7.16,7.55a12,12,0,0,0,11.5-3.74v1.57c0,1.21.46,2.09,1.82,2.1s1.95-.82,1.95-2.14c0-4.6.06-9.19,0-13.79C502.54,454.92,499.76,451.61,495.2,450.75ZM495.13,472c-3,1.43-6.13,1.73-9-.19a4.4,4.4,0,0,1,.19-7.52c1.76-1.15,3.75-1.26,6.55-1.25a27.77,27.77,0,0,1,5,.71c.83.16,1.18.51,1.19,1.47C499.09,468.31,498,470.67,495.13,472Z" transform="translate(-208.07 -84.9)"/><path class="cls-2" d="M397.53,451.28c-5.27,2.37-8.1,8.5-6.92,14.6A12.45,12.45,0,0,0,402.38,476a13.36,13.36,0,0,0,10.29-3.67,1.62,1.62,0,1,0-2.06-2.51c-.42.32-.83.66-1.26,1-5.83,4.11-13.27,1.56-14.86-5.08-.23-1-.16-1.41,1.05-1.37,2.8.08,5.62,0,8.43,0h8.59c1.23,0,1.9-.58,1.9-1.81C414.41,452.59,405.41,447.72,397.53,451.28Zm12.09,10.42h-7.16c-2.39,0-4.77,0-7.16,0-.62,0-1.05-.06-.9-.85,1.26-6.88,7.78-9.31,12.44-6.29,2.29,1.48,3.22,3.81,3.73,6.36C410.74,461.82,410.15,461.7,409.62,461.7Z" transform="translate(-208.07 -84.9)"/><path class="cls-2" d="M345.92,450.81a20.08,20.08,0,0,0-12,1.05c-1.12.44-1.7,1.2-1.25,2.31s1.44,1.23,2.52.76a15.8,15.8,0,0,1,5.05-1.25c5.09-.38,9.12,1.62,8.75,7.42-1.29-.24-2.56-.59-3.85-.71-3.43-.29-6.89-.55-10.16.89a7.36,7.36,0,0,0-.49,13.46,12.26,12.26,0,0,0,8.63.85,12.63,12.63,0,0,0,6-3.68c0,.77,0,1.23,0,1.69-.11,1.29.48,2.09,1.76,2.1s1.82-.78,1.82-2.06c0-4.8,0-9.61,0-14.41A8.38,8.38,0,0,0,345.92,450.81Zm-3.8,22.11c-.47.05-.95.05-1.42.08a7.57,7.57,0,0,1-3.82-.86,4.46,4.46,0,0,1-2.63-4.16,4.34,4.34,0,0,1,2.85-4.17c3.82-1.58,7.68-.8,11.51,0,.6.13.51.7.53,1.17C349.31,469.42,346.62,472.47,342.12,472.92Z" transform="translate(-208.07 -84.9)"/><path class="cls-2" d="M555.25,451.14c-4.55-2.08-9.54-.77-13.17,3.6v-1.4c0-1.84-.77-2.87-2-2.85s-1.86,1-1.86,2.79c0,4.54,0,9.08,0,13.62,0,2.27,0,4.54,0,6.81a1.89,1.89,0,0,0,2.35,2.05c1.29-.29,1.54-1.3,1.54-2.42,0-4.28-.07-8.56,0-12.83.1-3.85,3.28-6.74,7.31-6.88A6.47,6.47,0,0,1,556.5,460c.37,4.43.07,8.87.14,13.3,0,1.8.57,2.53,1.88,2.53s2-.8,2-2.48c0-4.27.07-8.55,0-12.83C560.45,456.46,559.24,453,555.25,451.14Z" transform="translate(-208.07 -84.9)"/><path class="cls-2" d="M529.28,450.52a1.82,1.82,0,0,0-2,1.69,8.28,8.28,0,0,0-.09,1.41c0,4.07.06,8.13,0,12.2a7.18,7.18,0,0,1-7.31,6.85c-4.09.08-6.76-2.22-7.08-6.28-.36-4.54-.09-9.08-.13-13.62,0-1.34-.61-2.21-1.9-2.24s-1.91.89-1.9,2.22c0,4.7-.08,9.4,0,14.1.14,5.69,3.95,9.24,9.68,9.26a10,10,0,0,0,8.53-4.44,25.85,25.85,0,0,0,.26,2.69,1.7,1.7,0,0,0,2,1.42,1.62,1.62,0,0,0,1.68-1.56,16.9,16.9,0,0,0,.09-1.74V454.26c0-.63,0-1.26,0-1.9A1.78,1.78,0,0,0,529.28,450.52Z" transform="translate(-208.07 -84.9)"/><path class="cls-2" d="M476.35,449.5c0-1.32-.58-2.17-1.94-2.17s-2,.91-2,2.19q0,3,0,6a25.19,25.19,0,0,1-.71,6.42c-1.83,7.29-7.42,11.08-14.91,10a18.25,18.25,0,0,1-11.65-6.75,2,2,0,0,0-2.9-.54c-1,.7-1.06,1.86-.14,3A22.26,22.26,0,0,0,452.51,475c10,3.48,19.52-1,22.66-10.77a26.91,26.91,0,0,0,1.18-9.35C476.35,452.78,476.34,451.14,476.35,449.5Z" transform="translate(-208.07 -84.9)"/><path class="cls-2" d="M434.45,463.22a22.82,22.82,0,0,0-5.3-2,19.14,19.14,0,0,1-4.42-1.66,2.82,2.82,0,0,1-1.75-2.6,3.16,3.16,0,0,1,1.9-2.87,5.41,5.41,0,0,1,1.49-.48c2.85-.54,5.41.4,7.9,1.64,1.06.52,2,.43,2.56-.67s-.06-1.86-1-2.31a19.18,19.18,0,0,0-3.52-1.38c-3.35-.81-6.71-1.09-9.84.79a6.37,6.37,0,0,0-3.26,5.94,5.6,5.6,0,0,0,3.6,5.14,29.44,29.44,0,0,0,3.38,1.3,32,32,0,0,1,5.83,2,3.27,3.27,0,0,1,0,5.94,5.16,5.16,0,0,1-1.93.67c-3.37.5-6.36-.59-9.15-2.31-1.08-.67-2-.75-2.71.39s0,1.88,1,2.45a17.63,17.63,0,0,0,9.12,2.76,10.28,10.28,0,0,0,6.71-2A6.39,6.39,0,0,0,434.45,463.22Z" transform="translate(-208.07 -84.9)"/><path class="cls-2" d="M610.3,463.46a24.58,24.58,0,0,0-4.82-1.95,21.81,21.81,0,0,1-5.32-2c-2.22-1.39-2.17-3.88.08-5.23a5.32,5.32,0,0,1,2.39-.74,13.05,13.05,0,0,1,7,1.65c1.06.54,2.16.7,2.74-.48s-.11-2.08-1.3-2.6a18.05,18.05,0,0,0-7.63-1.75,9.53,9.53,0,0,0-3.17.39,6.84,6.84,0,0,0-5.4,6.08c-.26,3,1,4.91,4.35,6.38.77.34,1.59.57,2.38.84,2,.67,4.11,1,6,2a3.15,3.15,0,0,1,2,2.95,3.51,3.51,0,0,1-2.25,3.18,7.71,7.71,0,0,1-4.35.56,15.26,15.26,0,0,1-6.19-2.28c-1-.67-2.16-1-2.9.24s.13,2,1.17,2.66a18.41,18.41,0,0,0,5.87,2.29c3.42.66,6.72.5,9.7-1.64S614.57,465.86,610.3,463.46Z" transform="translate(-208.07 -84.9)"/><rect class="cls-3" width="359.51" height="327.88" rx="20.82"/><path class="cls-1" d="M388.66,360.1c-49.21,0-89.8-32.84-108.24-55.86a15.88,15.88,0,0,1,24.81-19.83c1.91,2.38,47.24,57.92,105.83,40.7,48.8-14.33,48.8-86.5,48.8-125.27a15.9,15.9,0,0,1,31.79,0c0,43.72,0,134.69-71.62,155.72A111,111,0,0,1,388.66,360.1Z" transform="translate(-208.07 -84.9)"/><path class="cls-1" d="M295.83,229.81a15.88,15.88,0,0,1-15.89-15.87V198.08a15.89,15.89,0,0,1,31.78,0v15.86A15.89,15.89,0,0,1,295.83,229.81Z" transform="translate(-208.07 -84.9)"/></svg>